<svg version="1.1" id="Layer_1" xmlns="http://www.w3.org/2000/svg" xmlns:xlink="http://www.w3.org/1999/xlink" x="0px" y="0px"
	 width="100%" viewBox="0 0 1024 1024" enable-background="new 0 0 1024 1024" xml:space="preserve">

<g id="avatar-tete-base">
    <path fill="#F4F5F4" opacity="1.0.00000" stroke="none" d="M801.343994,387.550964 C801.351746,387.144409 801.770691,387.271057 801.917480,387.108704 C804.094299,393.445679 802.642700,400.083954 802.457458,406.854309 C801.885254,407.226837 801.706909,407.401031 801.426086,407.215576 C801.569397,400.556641 801.886658,394.257385 801.343994,387.550964 z"/>
    <path fill="#E3E4E4" opacity="1.0.00000" stroke="none" d="M792.841431,389.696075 C788.808044,390.494568 786.052551,389.539581 787.045044,384.756195 C788.444641,378.011169 787.188660,371.307861 784.702393,365.358002 C778.758911,351.134644 772.255981,337.156403 759.148010,327.527435 C745.811523,317.730591 729.143738,316.446045 714.797852,324.705475 C710.832947,326.988190 706.666748,328.921478 702.212769,331.041534 C698.103455,324.161652 698.098938,324.153778 704.871582,320.253998 C710.080017,317.254974 715.608154,314.957458 721.318848,313.147369 C739.665466,307.332245 754.231934,314.352020 766.702698,327.186127 C783.462036,344.433716 790.751770,365.838776 792.841431,389.696075 z"/>
    <path fill="#E3E4E4" opacity="1.0.00000" stroke="none" d="M738.730530,530.293213 C741.747864,529.615356 740.678162,527.927185 740.241211,526.317993 C735.428772,508.593475 731.045471,490.739197 725.686646,473.182373 C723.284973,465.313843 721.429749,457.131409 715.934753,450.180054 C713.807312,447.488831 711.673950,442.808044 712.979370,438.055359 C726.609436,458.509125 736.295044,480.827576 743.800476,504.213654 C748.124268,517.686218 751.094421,531.544006 755.957764,544.856812 C761.471497,559.950012 768.523682,574.187744 778.173706,587.083679 C778.751892,587.856384 779.526062,588.564392 779.358887,589.707642 C777.059753,590.455444 775.210144,588.938477 773.145691,588.500183 C771.990662,588.255066 770.899353,586.459717 769.679138,587.942810 C768.690369,589.144470 769.659424,590.526489 770.164978,591.695129 C772.606140,597.338318 775.146118,602.938721 777.629333,608.563904 C778.164856,609.777100 778.610901,611.029785 779.109375,612.600464 C778.506226,614.054199 777.634460,613.500366 776.415283,613.105103 C775.653564,612.553467 775.510071,612.111938 775.764648,611.304688 C774.827576,608.807556 773.679382,606.610596 772.280884,604.184570 C769.786621,602.462097 769.168579,600.106506 768.849426,597.336121 C765.480103,583.921631 757.537170,572.880005 752.080688,560.298889 C751.204163,559.257874 750.131470,559.103516 749.213440,558.169434 C749.011841,556.894287 749.011108,555.839844 748.994812,554.390259 C748.315979,553.270935 747.308777,553.021423 746.437744,551.998047 C744.789062,546.586426 743.328064,541.484192 741.179138,536.239990 C740.672791,534.884155 740.585815,533.702332 739.322998,532.755920 C738.642822,531.939453 738.419006,531.306152 738.730530,530.293213 z"/>
</g>

<g id="avatar-casquette">
    <path fill="#33455E" opacity="1.0.00000" stroke="none" d="M654.790955,398.619110 C653.455933,402.220734 651.271790,400.407532 649.699646,399.774628 C633.768127,393.360931 617.420959,388.200165 600.751770,384.196716 C580.894226,379.427551 560.972290,375.068115 540.580872,372.790741 C522.512085,370.772736 504.475677,369.788696 486.327209,370.007965 C459.909637,370.327118 434.045502,374.244629 408.711273,381.695496 C384.992462,388.671234 362.150299,397.718933 340.964386,410.622955 C338.412476,412.177368 336.014374,413.984314 333.216736,415.749207 C331.097992,412.102814 332.212372,408.194550 332.830322,404.597229 C336.184845,385.069031 339.299957,365.501587 343.536804,346.119629 C348.012177,325.646454 359.679779,310.888824 376.877380,299.523865 C405.439453,280.648834 435.752014,265.029755 466.189575,249.516052 C476.291687,244.367126 486.705505,243.093613 497.421082,242.578293 C516.163025,241.676971 534.621826,244.201416 552.835632,248.597794 C553.800293,248.830643 554.747681,249.201935 556.135559,249.085724 C557.461304,248.913498 558.399414,248.984650 559.567383,249.539856 C560.097656,250.399124 560.254761,251.289658 561.613281,250.368744 C567.597595,251.832733 572.449463,255.108734 577.503479,257.826843 C595.917908,267.730560 613.748413,278.547607 628.830200,293.857880 C630.009460,294.868774 630.890076,295.681091 632.192932,296.571930 C632.622375,297.039276 632.771729,297.250153 633.084595,297.818085 C637.013306,305.496552 640.465393,312.870758 642.609436,320.939850 C646.583191,335.894806 649.051697,351.106262 651.554871,366.327881 C652.929077,374.684235 653.103516,383.208160 655.132141,391.897095 C655.491089,394.293793 655.774048,396.283478 654.790955,398.619110 z"/>
    <path fill="#597093" opacity="1.0.00000" stroke="none" d="M297.836029,454.077148 C298.003174,454.316193 297.825867,454.573425 297.274017,454.814087 C297.203278,454.630676 297.400635,454.396606 297.836029,454.077148 z"/>
    <path fill="#597093" opacity="1.0.00000" stroke="none" d="M560.003174,250.912079 C560.150879,250.757263 560.551331,250.900101 560.750122,250.975128 C560.624451,251.276489 560.300049,251.502808 559.975647,251.729126 C559.935547,251.508392 559.895508,251.287643 560.003174,250.912079 z"/>
    <path fill="#597093" opacity="1.0.00000" stroke="none" d="M602.990479,248.658112 C602.078247,250.144165 601.246155,248.854813 600.229248,248.428070 C601.054260,248.140442 601.975403,248.228012 602.990479,248.658112 z"/>
</g>
<g id="avatar-visage-expressions">
	<g id="avatar-yeux-ouverts">
	    <path fill="#282727" opacity="1.000000" stroke="none" d="M602.088440,729.038330 C602.642151,727.914001 603.501770,726.970642 604.681030,725.983887 C605.672729,727.576965 604.374451,728.616699 603.534180,730.107666 C602.971497,729.964539 602.682922,729.591858 602.088440,729.038330 z"/>
	    <path fill="#282727" opacity="1.000000" stroke="none" d="M429.721924,656.469116 C417.738251,653.979187 405.947144,653.326599 393.689941,652.857605 C383.466919,651.995239 373.692627,652.335510 363.450684,652.905396 C362.129517,651.181152 363.223480,651.058228 364.515686,651.050049 C366.454407,651.037720 368.392883,650.991516 370.664734,650.769104 C371.084869,650.316589 371.171692,650.054749 371.600525,650.025757 C379.011047,650.285706 386.079498,650.312683 393.599487,650.189331 C396.194397,648.486694 398.582886,648.426514 401.126312,648.614685 C411.135834,649.355286 420.996826,651.559753 431.478119,651.718384 C433.730316,652.593506 435.095856,654.555664 437.657837,653.512146 C439.134430,652.910767 440.356262,654.307312 441.713074,655.586670 C442.440277,655.901917 442.876404,655.972595 443.640137,656.101074 C444.085724,656.662354 443.979889,657.119568 443.344971,657.690002 C438.685944,657.577820 434.504028,656.069519 429.721924,656.469116 z"/>
	</g>
    <g id="avatar-yeux-fermes" display="none">
        <path d="M 602.088440,729.038330 C 602.642151,728.914001 603.501770,728.970642 604.681030,728.983887 C 605.672729,729.576965 604.374451,729.616699 603.534180,731.107666 C 602.971497,729.964539 602.682922,729.591858 602.088440,729.038330 z" fill="#282727" opacity="1.0" stroke="none"/>
        <path d="M 429.721924,656.469116 C 417.738251,655.979187 405.947144,655.326599 393.689941,654.857605 C 383.466919,653.995239 373.692627,654.335510 363.450684,654.905396 C 362.129517,653.181152 363.223480,653.058228 364.515686,653.050049 C 366.454407,653.037720 368.392883,652.991516 370.664734,652.769104 C 371.084869,652.316589 371.171692,652.054749 371.600525,652.025757 C 379.011047,652.285706 386.079498,652.312683 393.599487,652.189331 C 396.194397,650.486694 398.582886,650.426514 401.126312,650.614685 C 411.135834,651.355286 420.996826,653.559753 431.478119,653.718384 C 433.730316,654.593506 435.095856,656.555664 437.657837,655.512146 C 439.134430,654.910767 440.356262,656.307312 441.713074,657.586670 C 442.440277,657.901917 442.876404,657.972595 443.640137,658.101074 C 444.085724,658.662354 443.979889,659.119568 443.344971,659.690002 C 438.685944,659.577820 434.504028,658.069519 429.721924,658.469116 z" fill="#282727" opacity="1.0" stroke="none"/>
    </g>
	<g id="avatar-sourcils-fronces" display="none">
        <path d="M 590,502 C 600,508 610,508 615,504" stroke="#282727" stroke-width="8" stroke-linecap="round" fill="none" />
        <path d="M 625,504 C 630,508 640,508 650,502" stroke="#282727" stroke-width="8" stroke-linecap="round" fill="none" />
	</g>
	<g id="avatar-sourcils-neutres">
	    <path stroke="#282727" stroke-width="8" stroke-linecap="round" fill="none" d="M 590,508 C 600,502 610,502 615,506" />
        <path stroke="#282727" stroke-width="8" stroke-linecap="round" fill="none" d="M 625,506 C 630,502 640,502 650,508" />
	</g>
	<g id="avatar-bouche-sourire" display="none">
		<path stroke="#282727" stroke-width="8" stroke-linecap="round" fill="none" d="M 390,680 C 405,695 435,695 450,680" />
	</g>
	<g id="avatar-bouche-neutre">
	    <path stroke="#282727" stroke-width="8" stroke-linecap="round" fill="none" d="M 390,680 L 450,680" />
	</g>
</g>
</svg>
